# Blender 4.4.3
# www.blender.org
mtllib Torre 1.mtl
o Torus.025
v 29.652935 9.109719 9.570572
v 29.510063 9.596296 9.570572
v 29.126808 9.928389 9.570572
v 28.624851 10.000559 9.570572
v 28.163563 9.789894 9.570572
v 27.889393 9.363278 9.570572
v 27.889393 8.856160 9.570572
v 28.163563 8.429544 9.570572
v 28.624851 8.218880 9.570572
v 29.126808 8.291050 9.570572
v 29.510063 8.623142 9.570572
v 28.295628 9.109719 2.309616
v 28.162403 9.596296 2.361227
v 27.805031 9.928389 2.499674
v 27.336967 10.000559 2.681002
v 26.906826 9.789894 2.847640
v 26.651173 9.363278 2.946681
v 26.651173 8.856160 2.946681
v 26.906826 8.429544 2.847640
v 27.336967 8.218880 2.681002
v 27.805031 8.291050 2.499674
v 28.162403 8.623142 2.361227
v 24.407017 9.109719 -3.970708
v 24.301434 9.596296 -3.874457
v 24.018204 9.928389 -3.616260
v 23.647253 10.000559 -3.278093
v 23.306355 9.789894 -2.967323
v 23.103743 9.363278 -2.782618
v 23.103743 8.856160 -2.782618
v 23.306355 8.429544 -2.967323
v 23.647253 8.218880 -3.278093
v 24.018204 8.291050 -3.616260
v 24.301434 8.623142 -3.874457
v 18.512280 9.109719 -8.422207
v 18.448597 9.596296 -8.294313
v 18.277763 9.928389 -7.951239
v 18.054024 10.000559 -7.501905
v 17.848408 9.789894 -7.088976
v 17.726200 9.363278 -6.843548
v 17.726200 8.856160 -6.843548
v 17.848408 8.429544 -7.088976
v 18.054024 8.218880 -7.501905
v 18.277763 8.291050 -7.951239
v 18.448597 8.623142 -8.294313
v 11.407529 9.109719 -10.443684
v 11.394346 9.596296 -10.301422
v 11.358984 9.928389 -9.919802
v 11.312670 10.000559 -9.419987
v 11.270107 9.789894 -8.960663
v 11.244810 9.363278 -8.687664
v 11.244810 8.856160 -8.687664
v 11.270107 8.429544 -8.960663
v 11.312670 8.218880 -9.419987
v 11.358984 8.291050 -9.919802
v 11.394346 8.623142 -10.301422
v 4.052315 9.109719 -9.762121
v 4.091414 9.596296 -9.624704
v 4.196296 9.928389 -9.256081
v 4.333663 10.000559 -8.773285
v 4.459901 9.789894 -8.329605
v 4.534932 9.363278 -8.065901
v 4.534932 8.856160 -8.065901
v 4.459901 8.429544 -8.329605
v 4.333663 8.218880 -8.773285
v 4.196296 8.291050 -9.256081
v 4.091414 8.623142 -9.624704
v -2.560018 9.109719 -6.469572
v -2.473918 9.596296 -6.355558
v -2.242956 9.928389 -6.049715
v -1.940459 10.000559 -5.649144
v -1.662471 9.789894 -5.281027
v -1.497247 9.363278 -5.062235
v -1.497247 8.856160 -5.062235
v -1.662471 8.429544 -5.281027
v -1.940459 8.218880 -5.649144
v -2.242956 8.291050 -6.049715
v -2.473918 8.623142 -6.355558
v -7.536424 9.109719 -1.010716
v -7.414952 9.596296 -0.935505
v -7.089103 9.928389 -0.733747
v -6.662330 10.000559 -0.469501
v -6.270132 9.789894 -0.226663
v -6.037029 9.363278 -0.082331
v -6.037029 8.856160 -0.082331
v -6.270132 8.429544 -0.226663
v -6.662330 8.218880 -0.469501
v -7.089103 8.291050 -0.733747
v -7.414952 8.623142 -0.935505
v -10.204820 9.109719 5.877207
v -10.064380 9.596296 5.903460
v -9.687652 9.928389 5.973882
v -9.194242 10.000559 6.066116
v -8.740806 9.789894 6.150878
v -8.471305 9.363278 6.201257
v -8.471305 8.856160 6.201257
v -8.740806 8.429544 6.150878
v -9.194242 8.218880 6.066116
v -9.687652 8.291050 5.973882
v -10.064380 8.623142 5.903460
v -10.204820 9.109719 13.263937
v -10.064380 9.596296 13.237684
v -9.687652 9.928389 13.167261
v -9.194242 10.000559 13.075027
v -8.740806 9.789894 12.990265
v -8.471305 9.363278 12.939887
v -8.471305 8.856160 12.939887
v -8.740806 8.429544 12.990265
v -9.194242 8.218880 13.075027
v -9.687652 8.291050 13.167261
v -10.064380 8.623142 13.237684
v -7.536427 9.109719 20.151852
v -7.414956 9.596296 20.076641
v -7.089107 9.928389 19.874884
v -6.662333 10.000559 19.610638
v -6.270137 9.789894 19.367798
v -6.037033 9.363278 19.223467
v -6.037033 8.856160 19.223467
v -6.270137 8.429544 19.367798
v -6.662333 8.218880 19.610638
v -7.089107 8.291050 19.874884
v -7.414956 8.623142 20.076641
v -2.560024 9.109719 25.610710
v -2.473926 9.596296 25.496696
v -2.242964 9.928389 25.190853
v -1.940467 10.000559 24.790283
v -1.662477 9.789894 24.422165
v -1.497252 9.363278 24.203373
v -1.497252 8.856160 24.203373
v -1.662477 8.429544 24.422165
v -1.940467 8.218880 24.790283
v -2.242964 8.291050 25.190853
v -2.473926 8.623142 25.496696
v 4.052306 9.109719 28.903263
v 4.091405 9.596296 28.765846
v 4.196287 9.928389 28.397223
v 4.333654 10.000559 27.914427
v 4.459893 9.789894 27.470745
v 4.534923 9.363278 27.207043
v 4.534923 8.856160 27.207043
v 4.459893 8.429544 27.470745
v 4.333654 8.218880 27.914427
v 4.196287 8.291050 28.397223
v 4.091405 8.623142 28.765846
v 11.407529 9.109719 29.584827
v 11.394346 9.596296 29.442566
v 11.358984 9.928389 29.060946
v 11.312670 10.000559 28.561131
v 11.270107 9.789894 28.101807
v 11.244810 9.363278 27.828808
v 11.244810 8.856160 27.828808
v 11.270107 8.429544 28.101807
v 11.312670 8.218880 28.561131
v 11.358984 8.291050 29.060946
v 11.394346 8.623142 29.442566
v 18.512280 9.109719 27.563351
v 18.448597 9.596296 27.435457
v 18.277763 9.928389 27.092382
v 18.054024 10.000559 26.643049
v 17.848408 9.789894 26.230120
v 17.726200 9.363278 25.984692
v 17.726200 8.856160 25.984692
v 17.848408 8.429544 26.230120
v 18.054024 8.218880 26.643049
v 18.277763 8.291050 27.092382
v 18.448597 8.623142 27.435457
v 24.407005 9.109719 23.111862
v 24.301424 9.596296 23.015610
v 24.018196 9.928389 22.757412
v 23.647243 10.000559 22.419247
v 23.306347 9.789894 22.108477
v 23.103733 9.363278 21.923771
v 23.103733 8.856160 21.923771
v 23.306347 8.429544 22.108477
v 23.647243 8.218880 22.419247
v 24.018196 8.291050 22.757412
v 24.301424 8.623142 23.015610
v 28.295624 9.109719 16.831537
v 28.162399 9.596296 16.779926
v 27.805027 9.928389 16.641478
v 27.336964 10.000559 16.460152
v 26.906822 9.789894 16.293512
v 26.651169 9.363278 16.194471
v 26.651169 8.856160 16.194471
v 26.906822 8.429544 16.293512
v 27.336964 8.218880 16.460152
v 27.805027 8.291050 16.641478
v 28.162399 8.623142 16.779926
v 29.126808 20.734531 9.570572
v 27.805031 20.734531 2.499674
v 28.624851 20.806702 9.570572
v 27.336967 20.806702 2.681002
v 24.018204 20.734531 -3.616260
v 23.647253 20.806702 -3.278093
v 18.277763 20.734531 -7.951239
v 18.054024 20.806702 -7.501905
v 11.358984 20.734531 -9.919802
v 11.312670 20.806702 -9.419987
v 4.196296 20.734531 -9.256081
v 4.333663 20.806702 -8.773285
v -2.242956 20.734531 -6.049715
v -1.940459 20.806702 -5.649144
v -7.089103 20.734531 -0.733747
v -6.662330 20.806702 -0.469501
v -9.687652 20.734531 5.973882
v -9.194242 20.806702 6.066116
v -9.687652 20.734531 13.167261
v -9.194242 20.806702 13.075027
v -7.089107 20.734531 19.874884
v -6.662333 20.806702 19.610638
v -2.242964 20.734531 25.190853
v -1.940467 20.806702 24.790283
v 4.196287 20.734531 28.397223
v 4.333654 20.806702 27.914427
v 11.358984 20.734531 29.060946
v 11.312670 20.806702 28.561131
v 18.277763 20.734531 27.092382
v 18.054024 20.806702 26.643049
v 24.018196 20.734531 22.757412
v 23.647243 20.806702 22.419247
v 27.805027 20.734531 16.641478
v 27.336964 20.806702 16.460152
v 29.652935 21.718998 9.570572
v 29.510063 22.205574 9.570572
v 29.126808 22.537666 9.570572
v 28.624851 22.609837 9.570572
v 28.163563 22.399174 9.570572
v 27.889393 21.972557 9.570572
v 27.889393 21.465439 9.570572
v 28.163563 21.038822 9.570572
v 28.624851 20.828159 9.570572
v 29.126808 20.900330 9.570572
v 29.510063 21.232422 9.570572
v 28.295628 21.718998 2.309616
v 28.162403 22.205574 2.361227
v 27.805031 22.537666 2.499674
v 27.336967 22.609837 2.681002
v 26.906826 22.399174 2.847640
v 26.651173 21.972557 2.946681
v 26.651173 21.465439 2.946681
v 26.906826 21.038822 2.847640
v 27.336967 20.828159 2.681002
v 27.805031 20.900330 2.499674
v 28.162403 21.232422 2.361227
v 24.407017 21.718998 -3.970708
v 24.301434 22.205574 -3.874457
v 24.018204 22.537666 -3.616260
v 23.647253 22.609837 -3.278093
v 23.306355 22.399174 -2.967323
v 23.103743 21.972557 -2.782618
v 23.103743 21.465439 -2.782618
v 23.306355 21.038822 -2.967323
v 23.647253 20.828159 -3.278093
v 24.018204 20.900330 -3.616260
v 24.301434 21.232422 -3.874457
v 18.512280 21.718998 -8.422207
v 18.448597 22.205574 -8.294313
v 18.277763 22.537666 -7.951239
v 18.054024 22.609837 -7.501905
v 17.848408 22.399174 -7.088976
v 17.726200 21.972557 -6.843548
v 17.726200 21.465439 -6.843548
v 17.848408 21.038822 -7.088976
v 18.054024 20.828159 -7.501905
v 18.277763 20.900330 -7.951239
v 18.448597 21.232422 -8.294313
v 11.407529 21.718998 -10.443684
v 11.394346 22.205574 -10.301422
v 11.358984 22.537666 -9.919802
v 11.312670 22.609837 -9.419987
v 11.270107 22.399174 -8.960663
v 11.244810 21.972557 -8.687664
v 11.244810 21.465439 -8.687664
v 11.270107 21.038822 -8.960663
v 11.312670 20.828159 -9.419987
v 11.358984 20.900330 -9.919802
v 11.394346 21.232422 -10.301422
v 4.052315 21.718998 -9.762121
v 4.091414 22.205574 -9.624704
v 4.196296 22.537666 -9.256081
v 4.333663 22.609837 -8.773285
v 4.459901 22.399174 -8.329605
v 4.534932 21.972557 -8.065901
v 4.534932 21.465439 -8.065901
v 4.459901 21.038822 -8.329605
v 4.333663 20.828159 -8.773285
v 4.196296 20.900330 -9.256081
v 4.091414 21.232422 -9.624704
v -2.560018 21.718998 -6.469572
v -2.473918 22.205574 -6.355558
v -2.242956 22.537666 -6.049715
v -1.940459 22.609837 -5.649144
v -1.662471 22.399174 -5.281027
v -1.497247 21.972557 -5.062235
v -1.497247 21.465439 -5.062235
v -1.662471 21.038822 -5.281027
v -1.940459 20.828159 -5.649144
v -2.242956 20.900330 -6.049715
v -2.473918 21.232422 -6.355558
v -7.536424 21.718998 -1.010716
v -7.414952 22.205574 -0.935505
v -7.089103 22.537666 -0.733747
v -6.662330 22.609837 -0.469501
v -6.270132 22.399174 -0.226663
v -6.037029 21.972557 -0.082331
v -6.037029 21.465439 -0.082331
v -6.270132 21.038822 -0.226663
v -6.662330 20.828159 -0.469501
v -7.089103 20.900330 -0.733747
v -7.414952 21.232422 -0.935505
v -10.204820 21.718998 5.877207
v -10.064380 22.205574 5.903460
v -9.687652 22.537666 5.973882
v -9.194242 22.609837 6.066116
v -8.740806 22.399174 6.150878
v -8.471305 21.972557 6.201257
v -8.471305 21.465439 6.201257
v -8.740806 21.038822 6.150878
v -9.194242 20.828159 6.066116
v -9.687652 20.900330 5.973882
v -10.064380 21.232422 5.903460
v -10.204820 21.718998 13.263937
v -10.064380 22.205574 13.237684
v -9.687652 22.537666 13.167261
v -9.194242 22.609837 13.075027
v -8.740806 22.399174 12.990265
v -8.471305 21.972557 12.939887
v -8.471305 21.465439 12.939887
v -8.740806 21.038822 12.990265
v -9.194242 20.828159 13.075027
v -9.687652 20.900330 13.167261
v -10.064380 21.232422 13.237684
v -7.536427 21.718998 20.151852
v -7.414956 22.205574 20.076641
v -7.089107 22.537666 19.874884
v -6.662333 22.609837 19.610638
v -6.270137 22.399174 19.367798
v -6.037033 21.972557 19.223467
v -6.037033 21.465439 19.223467
v -6.270137 21.038822 19.367798
v -6.662333 20.828159 19.610638
v -7.089107 20.900330 19.874884
v -7.414956 21.232422 20.076641
v -2.560024 21.718998 25.610710
v -2.473926 22.205574 25.496696
v -2.242964 22.537666 25.190853
v -1.940467 22.609837 24.790283
v -1.662477 22.399174 24.422165
v -1.497252 21.972557 24.203373
v -1.497252 21.465439 24.203373
v -1.662477 21.038822 24.422165
v -1.940467 20.828159 24.790283
v -2.242964 20.900330 25.190853
v -2.473926 21.232422 25.496696
v 4.052306 21.718998 28.903263
v 4.091405 22.205574 28.765846
v 4.196287 22.537666 28.397223
v 4.333654 22.609837 27.914427
v 4.459893 22.399174 27.470745
v 4.534923 21.972557 27.207043
v 4.534923 21.465439 27.207043
v 4.459893 21.038822 27.470745
v 4.333654 20.828159 27.914427
v 4.196287 20.900330 28.397223
v 4.091405 21.232422 28.765846
v 11.407529 21.718998 29.584827
v 11.394346 22.205574 29.442566
v 11.358984 22.537666 29.060946
v 11.312670 22.609837 28.561131
v 11.270107 22.399174 28.101807
v 11.244810 21.972557 27.828808
v 11.244810 21.465439 27.828808
v 11.270107 21.038822 28.101807
v 11.312670 20.828159 28.561131
v 11.358984 20.900330 29.060946
v 11.394346 21.232422 29.442566
v 18.512280 21.718998 27.563351
v 18.448597 22.205574 27.435457
v 18.277763 22.537666 27.092382
v 18.054024 22.609837 26.643049
v 17.848408 22.399174 26.230120
v 17.726200 21.972557 25.984692
v 17.726200 21.465439 25.984692
v 17.848408 21.038822 26.230120
v 18.054024 20.828159 26.643049
v 18.277763 20.900330 27.092382
v 18.448597 21.232422 27.435457
v 24.407005 21.718998 23.111862
v 24.301424 22.205574 23.015610
v 24.018196 22.537666 22.757412
v 23.647243 22.609837 22.419247
v 23.306347 22.399174 22.108477
v 23.103733 21.972557 21.923771
v 23.103733 21.465439 21.923771
v 23.306347 21.038822 22.108477
v 23.647243 20.828159 22.419247
v 24.018196 20.900330 22.757412
v 24.301424 21.232422 23.015610
v 28.295624 21.718998 16.831537
v 28.162399 22.205574 16.779926
v 27.805027 22.537666 16.641478
v 27.336964 22.609837 16.460152
v 26.906822 22.399174 16.293512
v 26.651169 21.972557 16.194471
v 26.651169 21.465439 16.194471
v 26.906822 21.038822 16.293512
v 27.336964 20.828159 16.460152
v 27.805027 20.900330 16.641478
v 28.162399 21.232422 16.779926
vn 0.9444 0.2773 -0.1765
vn 0.6500 0.7501 -0.1215
vn 0.0923 -0.0000 -0.9957
vn -0.4142 0.9069 0.0774
vn -0.8310 0.5341 0.1553
vn -0.9830 -0.0000 0.1837
vn -0.8310 -0.5341 0.1553
vn -0.4142 -0.9069 0.0774
vn 0.1423 -0.9895 -0.0266
vn 0.6500 -0.7501 -0.1215
vn 0.9444 -0.2773 -0.1765
vn 0.8169 0.2773 -0.5058
vn 0.5622 0.7501 -0.3481
vn -0.7390 -0.0000 -0.6737
vn -0.3582 0.9069 0.2218
vn -0.7188 0.5341 0.4451
vn -0.8502 -0.0000 0.5264
vn -0.7188 -0.5341 0.4451
vn -0.3582 -0.9069 0.2218
vn 0.1231 -0.9895 -0.0762
vn 0.5622 -0.7501 -0.3481
vn 0.8169 -0.2773 -0.5058
vn 0.5790 0.2773 -0.7667
vn 0.3985 0.7502 -0.5277
vn -0.2539 0.9069 0.3362
vn -0.5095 0.5341 0.6747
vn -0.6026 -0.0000 0.7980
vn -0.5095 -0.5341 0.6747
vn -0.2539 -0.9069 0.3362
vn 0.0872 -0.9895 -0.1155
vn 0.3985 -0.7502 -0.5277
vn 0.5790 -0.2773 -0.7667
vn 0.2629 0.2773 -0.9241
vn 0.1810 0.7501 -0.6360
vn -0.9325 -0.0000 0.3612
vn -0.1153 0.9069 0.4053
vn -0.2314 0.5341 0.8132
vn -0.2737 -0.0000 0.9618
vn -0.2314 -0.5341 0.8132
vn -0.1153 -0.9069 0.4053
vn 0.0396 -0.9895 -0.1392
vn 0.1810 -0.7501 -0.6360
vn 0.2629 -0.2773 -0.9241
vn -0.0886 0.2773 -0.9567
vn -0.0610 0.7501 -0.6584
vn -0.8502 -0.0000 -0.5264
vn 0.0389 0.9069 0.4195
vn 0.0780 0.5341 0.8418
vn 0.0923 -0.0000 0.9957
vn 0.0780 -0.5341 0.8418
vn 0.0389 -0.9069 0.4195
vn -0.0134 -0.9895 -0.1441
vn -0.0610 -0.7501 -0.6584
vn -0.0886 -0.2773 -0.9567
vn -0.4283 0.2773 -0.8601
vn -0.2948 0.7501 -0.5919
vn 0.1878 0.9069 0.3772
vn 0.3768 0.5341 0.7568
vn 0.4457 -0.0000 0.8952
vn 0.3768 -0.5341 0.7568
vn 0.1878 -0.9069 0.3772
vn -0.0645 -0.9895 -0.1296
vn -0.2948 -0.7501 -0.5919
vn -0.4283 -0.2773 -0.8601
vn -0.7100 0.2773 -0.6473
vn -0.4887 0.7501 -0.4455
vn -0.0923 -0.0000 0.9957
vn 0.3114 0.9069 0.2839
vn 0.6248 0.5341 0.5696
vn 0.7390 -0.0000 0.6737
vn 0.6248 -0.5341 0.5696
vn 0.3114 -0.9069 0.2839
vn -0.1070 -0.9895 -0.0975
vn -0.4887 -0.7501 -0.4455
vn -0.7100 -0.2773 -0.6473
vn -0.8959 0.2773 -0.3471
vn -0.6166 0.7501 -0.2389
vn 0.8502 -0.0000 -0.5264
vn 0.3929 0.9069 0.1522
vn 0.7883 0.5341 0.3054
vn 0.9325 -0.0000 0.3612
vn 0.7883 -0.5341 0.3054
vn 0.3929 -0.9069 0.1522
vn -0.1350 -0.9895 -0.0523
vn -0.6166 -0.7501 -0.2389
vn -0.8959 -0.2773 -0.3471
vn -0.9608 0.2773 -0.0000
vn -0.6613 0.7501 -0.0000
vn 0.4213 0.9069 -0.0000
vn 0.8454 0.5341 -0.0000
vn 1.0000 -0.0000 -0.0000
vn 0.8454 -0.5341 -0.0000
vn 0.4213 -0.9069 -0.0000
vn -0.1447 -0.9895 -0.0000
vn -0.6613 -0.7501 -0.0000
vn -0.9608 -0.2773 -0.0000
vn -0.8959 0.2773 0.3471
vn -0.6166 0.7501 0.2389
vn 0.8502 -0.0000 0.5264
vn 0.3929 0.9069 -0.1522
vn 0.7883 0.5341 -0.3054
vn 0.9325 -0.0000 -0.3612
vn 0.7883 -0.5341 -0.3054
vn 0.3929 -0.9069 -0.1522
vn -0.1350 -0.9895 0.0523
vn -0.6166 -0.7501 0.2389
vn -0.8959 -0.2773 0.3471
vn -0.7100 0.2773 0.6473
vn -0.4887 0.7501 0.4455
vn 0.7390 -0.0000 -0.6737
vn 0.3114 0.9069 -0.2839
vn 0.6248 0.5341 -0.5696
vn 0.6248 -0.5341 -0.5696
vn 0.3114 -0.9069 -0.2839
vn -0.1070 -0.9895 0.0975
vn -0.4887 -0.7501 0.4455
vn -0.7100 -0.2773 0.6473
vn -0.4283 0.2773 0.8601
vn -0.2948 0.7501 0.5919
vn -0.0923 -0.0000 -0.9957
vn 0.1878 0.9069 -0.3772
vn 0.3768 0.5341 -0.7568
vn 0.4457 -0.0000 -0.8952
vn 0.3768 -0.5341 -0.7568
vn 0.1878 -0.9069 -0.3772
vn -0.0645 -0.9895 0.1296
vn -0.2948 -0.7501 0.5919
vn -0.4283 -0.2773 0.8601
vn -0.0887 0.2773 0.9567
vn -0.0610 0.7501 0.6584
vn 0.0389 0.9069 -0.4195
vn 0.0780 0.5341 -0.8418
vn 0.0780 -0.5341 -0.8418
vn 0.0389 -0.9069 -0.4195
vn -0.0134 -0.9895 0.1441
vn -0.0610 -0.7501 0.6584
vn -0.0887 -0.2773 0.9567
vn 0.2629 0.2773 0.9241
vn 0.1810 0.7501 0.6360
vn -0.2737 -0.0000 -0.9618
vn -0.1153 0.9069 -0.4053
vn -0.2314 0.5341 -0.8132
vn -0.2314 -0.5341 -0.8132
vn -0.1153 -0.9069 -0.4053
vn 0.0396 -0.9895 0.1392
vn 0.1810 -0.7501 0.6360
vn 0.2629 -0.2773 0.9241
vn 0.5790 0.2773 0.7667
vn 0.3985 0.7501 0.5277
vn -0.9325 -0.0000 -0.3612
vn -0.2539 0.9069 -0.3362
vn -0.5095 0.5341 -0.6747
vn -0.6026 -0.0000 -0.7980
vn -0.5095 -0.5341 -0.6747
vn -0.2539 -0.9069 -0.3362
vn 0.0872 -0.9895 0.1155
vn 0.3985 -0.7501 0.5277
vn 0.5790 -0.2773 0.7667
vn 0.8169 0.2773 0.5058
vn 0.5622 0.7501 0.3481
vn -0.3582 0.9069 -0.2218
vn -0.7188 0.5341 -0.4451
vn -0.7188 -0.5341 -0.4451
vn -0.3582 -0.9069 -0.2218
vn 0.1231 -0.9895 0.0762
vn 0.5622 -0.7501 0.3481
vn 0.8169 -0.2773 0.5058
vn 0.9444 0.2773 0.1765
vn 0.6500 0.7501 0.1215
vn -0.7390 -0.0000 0.6737
vn -0.4142 0.9069 -0.0774
vn -0.8310 0.5341 -0.1553
vn -0.9830 -0.0000 -0.1837
vn -0.8310 -0.5341 -0.1553
vn -0.4142 -0.9069 -0.0774
vn 0.1423 -0.9895 0.0266
vn 0.6500 -0.7501 0.1215
vn 0.9444 -0.2773 0.1765
vn -0.0000 -1.0000 -0.0000
vn 0.1423 0.9895 -0.0266
vn 0.1231 0.9895 -0.0762
vn 0.0872 0.9895 -0.1155
vn 0.0396 0.9895 -0.1392
vn -0.0134 0.9895 -0.1441
vn -0.0645 0.9895 -0.1296
vn -0.1070 0.9895 -0.0975
vn -0.1350 0.9895 -0.0523
vn -0.1447 0.9895 -0.0000
vn -0.1350 0.9895 0.0523
vn -0.1070 0.9895 0.0975
vn -0.0645 0.9895 0.1296
vn -0.0134 0.9895 0.1441
vn 0.0396 0.9895 0.1392
vn 0.0872 0.9895 0.1155
vn 0.1231 0.9895 0.0762
vn 0.1423 0.9895 0.0266
vn 0.2737 -0.0000 -0.9618
vn 0.6026 -0.0000 0.7980
vn -0.4457 -0.0000 0.8952
vn 0.9830 -0.0000 0.1837
vn -1.0000 -0.0000 -0.0000
vn -0.4457 -0.0000 -0.8952
vn 0.6026 -0.0000 -0.7980
vn 0.9830 -0.0000 -0.1837
vn 0.2737 -0.0000 0.9618
vn -0.0610 0.7502 -0.6584
vn -0.0610 -0.7502 -0.6584
vn -0.6166 -0.7502 -0.2389
vn -0.6613 0.7502 -0.0000
vn -0.4887 -0.7502 0.4455
vn -0.0886 0.2773 0.9567
vn -0.0886 -0.2773 0.9567
vn 0.5622 0.7502 0.3481
vt 0.529412 0.545455
vt 0.588235 0.545455
vt 0.588235 0.636364
vt 0.529412 0.636364
vt 0.588235 0.727273
vt 0.529412 0.727273
vt 0.294118 0.818182
vt 0.235294 0.818182
vt 0.529412 0.818182
vt 0.588235 0.818182
vt 0.588235 0.909091
vt 0.529412 0.909091
vt 0.588235 1.000000
vt 0.529412 1.000000
vt 0.529412 0.000000
vt 0.588235 0.000000
vt 0.588235 0.090909
vt 0.529412 0.090909
vt 0.588235 0.181818
vt 0.529412 0.181818
vt 0.588235 0.272727
vt 0.529412 0.272727
vt 0.588235 0.363636
vt 0.529412 0.363636
vt 0.588235 0.454545
vt 0.529412 0.454545
vt 0.647059 0.545455
vt 0.647059 0.636364
vt 0.647059 0.727273
vt 0.882353 0.727273
vt 0.941176 0.727273
vt 0.647059 0.818182
vt 0.647059 0.909091
vt 0.647059 1.000000
vt 0.647059 0.000000
vt 0.647059 0.090909
vt 0.647059 0.181818
vt 0.647059 0.272727
vt 0.647059 0.363636
vt 0.647059 0.454545
vt 0.705882 0.545455
vt 0.705882 0.636364
vt 0.705882 0.727273
vt 0.705882 0.818182
vt 0.705882 0.909091
vt 0.705882 1.000000
vt 0.705882 0.000000
vt 0.705882 0.090909
vt 0.705882 0.181818
vt 0.705882 0.272727
vt 0.705882 0.363636
vt 0.705882 0.454545
vt 0.764706 0.545455
vt 0.764706 0.636364
vt 0.764706 0.727273
vt 0.058824 0.727273
vt 0.117647 0.727273
vt 0.764706 0.818182
vt 0.764706 0.909091
vt 0.764706 1.000000
vt 0.764706 0.000000
vt 0.764706 0.090909
vt 0.764706 0.181818
vt 0.764706 0.272727
vt 0.764706 0.363636
vt 0.764706 0.454545
vt 0.823529 0.545455
vt 0.823529 0.636364
vt 0.823529 0.727273
vt 0.470588 0.818182
vt 0.411765 0.818182
vt 0.823529 0.818182
vt 0.823529 0.909091
vt 0.823529 1.000000
vt 0.823529 0.000000
vt 0.823529 0.090909
vt 0.823529 0.181818
vt 0.823529 0.272727
vt 0.823529 0.363636
vt 0.823529 0.454545
vt 0.882353 0.545455
vt 0.882353 0.636364
vt 0.882353 0.818182
vt 0.882353 0.909091
vt 0.882353 1.000000
vt 0.882353 0.000000
vt 0.882353 0.090909
vt 0.882353 0.181818
vt 0.882353 0.272727
vt 0.882353 0.363636
vt 0.882353 0.454545
vt 0.941176 0.545455
vt 0.941176 0.636364
vt 0.235294 0.727273
vt 0.294118 0.727273
vt 0.941176 0.818182
vt 0.941176 0.909091
vt 0.941176 1.000000
vt 0.941176 0.000000
vt 0.941176 0.090909
vt 0.941176 0.181818
vt 0.941176 0.272727
vt 0.941176 0.363636
vt 0.941176 0.454545
vt 1.000000 0.545455
vt 1.000000 0.636364
vt 1.000000 0.727273
vt 1.000000 0.818182
vt 1.000000 0.909091
vt 1.000000 1.000000
vt 1.000000 0.000000
vt 1.000000 0.090909
vt 1.000000 0.181818
vt 1.000000 0.272727
vt 1.000000 0.363636
vt 1.000000 0.454545
vt 0.000000 0.545455
vt 0.058824 0.545455
vt 0.058824 0.636364
vt 0.000000 0.636364
vt 0.000000 0.727273
vt 0.000000 0.818182
vt 0.058824 0.818182
vt 0.058824 0.909091
vt 0.000000 0.909091
vt 0.058824 1.000000
vt 0.000000 1.000000
vt 0.000000 0.000000
vt 0.058824 0.000000
vt 0.058824 0.090909
vt 0.000000 0.090909
vt 0.058824 0.181818
vt 0.000000 0.181818
vt 0.058824 0.272727
vt 0.000000 0.272727
vt 0.058824 0.363636
vt 0.000000 0.363636
vt 0.058824 0.454545
vt 0.000000 0.454545
vt 0.117647 0.545455
vt 0.117647 0.636364
vt 0.411765 0.727273
vt 0.470588 0.727273
vt 0.117647 0.818182
vt 0.117647 0.909091
vt 0.117647 1.000000
vt 0.117647 0.000000
vt 0.117647 0.090909
vt 0.117647 0.181818
vt 0.117647 0.272727
vt 0.117647 0.363636
vt 0.117647 0.454545
vt 0.176471 0.545455
vt 0.176471 0.636364
vt 0.176471 0.727273
vt 0.176471 0.818182
vt 0.176471 0.909091
vt 0.176471 1.000000
vt 0.176471 0.000000
vt 0.176471 0.090909
vt 0.176471 0.181818
vt 0.176471 0.272727
vt 0.176471 0.363636
vt 0.176471 0.454545
vt 0.235294 0.545455
vt 0.235294 0.636364
vt 0.235294 0.909091
vt 0.235294 1.000000
vt 0.235294 0.000000
vt 0.235294 0.090909
vt 0.235294 0.181818
vt 0.235294 0.272727
vt 0.235294 0.363636
vt 0.235294 0.454545
vt 0.294118 0.545455
vt 0.294118 0.636364
vt 0.294118 0.909091
vt 0.294118 1.000000
vt 0.294118 0.000000
vt 0.294118 0.090909
vt 0.294118 0.181818
vt 0.294118 0.272727
vt 0.294118 0.363636
vt 0.294118 0.454545
vt 0.352941 0.545455
vt 0.352941 0.636364
vt 0.352941 0.727273
vt 0.352941 0.818182
vt 0.352941 0.909091
vt 0.352941 1.000000
vt 0.352941 0.000000
vt 0.352941 0.090909
vt 0.352941 0.181818
vt 0.352941 0.272727
vt 0.352941 0.363636
vt 0.352941 0.454545
vt 0.411765 0.545455
vt 0.411765 0.636364
vt 0.411765 0.909091
vt 0.411765 1.000000
vt 0.411765 0.000000
vt 0.411765 0.090909
vt 0.411765 0.181818
vt 0.411765 0.272727
vt 0.411765 0.363636
vt 0.411765 0.454545
vt 0.470588 0.545455
vt 0.470588 0.636364
vt 0.470588 0.909091
vt 0.470588 1.000000
vt 0.470588 0.000000
vt 0.470588 0.090909
vt 0.470588 0.181818
vt 0.470588 0.272727
vt 0.470588 0.363636
vt 0.470588 0.454545
s 0
f 1/1/1 12/2/1 13/3/1 2/4/1
f 2/4/2 13/3/2 14/5/2 3/6/2
f 147/7/3 136/8/3 213/8/3 215/7/3
f 4/9/4 15/10/4 16/11/4 5/12/4
f 5/12/5 16/11/5 17/13/5 6/14/5
f 6/15/6 17/16/6 18/17/6 7/18/6
f 7/18/7 18/17/7 19/19/7 8/20/7
f 8/20/8 19/19/8 20/21/8 9/22/8
f 9/22/9 20/21/9 21/23/9 10/24/9
f 10/24/10 21/23/10 22/25/10 11/26/10
f 11/26/11 22/25/11 12/2/11 1/1/11
f 12/2/12 23/27/12 24/28/12 13/3/12
f 13/3/13 24/28/13 25/29/13 14/5/13
f 69/30/14 80/31/14 202/31/14 200/30/14
f 15/10/15 26/32/15 27/33/15 16/11/15
f 16/11/16 27/33/16 28/34/16 17/13/16
f 17/16/17 28/35/17 29/36/17 18/17/17
f 18/17/18 29/36/18 30/37/18 19/19/18
f 19/19/19 30/37/19 31/38/19 20/21/19
f 20/21/20 31/38/20 32/39/20 21/23/20
f 21/23/21 32/39/21 33/40/21 22/25/21
f 22/25/22 33/40/22 23/27/22 12/2/22
f 23/27/23 34/41/23 35/42/23 24/28/23
f 24/28/24 35/42/24 36/43/24 25/29/24
f 26/32/17 15/10/17 191/10/17 193/32/17
f 26/32/25 37/44/25 38/45/25 27/33/25
f 27/33/26 38/45/26 39/46/26 28/34/26
f 28/35/27 39/47/27 40/48/27 29/36/27
f 29/36/28 40/48/28 41/49/28 30/37/28
f 30/37/29 41/49/29 42/50/29 31/38/29
f 31/38/30 42/50/30 43/51/30 32/39/30
f 32/39/31 43/51/31 44/52/31 33/40/31
f 33/40/32 44/52/32 34/41/32 23/27/32
f 34/41/33 45/53/33 46/54/33 35/42/33
f 35/42/34 46/54/34 47/55/34 36/43/34
f 102/56/35 113/57/35 208/57/35 206/56/35
f 37/44/36 48/58/36 49/59/36 38/45/36
f 38/45/37 49/59/37 50/60/37 39/46/37
f 39/47/38 50/61/38 51/62/38 40/48/38
f 40/48/39 51/62/39 52/63/39 41/49/39
f 41/49/40 52/63/40 53/64/40 42/50/40
f 42/50/41 53/64/41 54/65/41 43/51/41
f 43/51/42 54/65/42 55/66/42 44/52/42
f 44/52/43 55/66/43 45/53/43 34/41/43
f 45/53/44 56/67/44 57/68/44 46/54/44
f 46/54/45 57/68/45 58/69/45 47/55/45
f 180/70/46 169/71/46 219/71/46 221/70/46
f 48/58/47 59/72/47 60/73/47 49/59/47
f 49/59/48 60/73/48 61/74/48 50/60/48
f 50/61/49 61/75/49 62/76/49 51/62/49
f 51/62/50 62/76/50 63/77/50 52/63/50
f 52/63/51 63/77/51 64/78/51 53/64/51
f 53/64/52 64/78/52 65/79/52 54/65/52
f 54/65/53 65/79/53 66/80/53 55/66/53
f 55/66/54 66/80/54 56/67/54 45/53/54
f 56/67/55 67/81/55 68/82/55 57/68/55
f 57/68/56 68/82/56 69/30/56 58/69/56
f 59/72/49 48/58/49 197/58/49 199/72/49
f 59/72/57 70/83/57 71/84/57 60/73/57
f 60/73/58 71/84/58 72/85/58 61/74/58
f 61/75/59 72/86/59 73/87/59 62/76/59
f 62/76/60 73/87/60 74/88/60 63/77/60
f 63/77/61 74/88/61 75/89/61 64/78/61
f 64/78/62 75/89/62 76/90/62 65/79/62
f 65/79/63 76/90/63 77/91/63 66/80/63
f 66/80/64 77/91/64 67/81/64 56/67/64
f 67/81/65 78/92/65 79/93/65 68/82/65
f 68/82/66 79/93/66 80/31/66 69/30/66
f 135/94/67 146/95/67 214/95/67 212/94/67
f 70/83/68 81/96/68 82/97/68 71/84/68
f 71/84/69 82/97/69 83/98/69 72/85/69
f 72/86/70 83/99/70 84/100/70 73/87/70
f 73/87/71 84/100/71 85/101/71 74/88/71
f 74/88/72 85/101/72 86/102/72 75/89/72
f 75/89/73 86/102/73 87/103/73 76/90/73
f 76/90/74 87/103/74 88/104/74 77/91/74
f 77/91/75 88/104/75 78/92/75 67/81/75
f 78/92/76 89/105/76 90/106/76 79/93/76
f 79/93/77 90/106/77 91/107/77 80/31/77
f 14/5/78 25/29/78 192/29/78 189/5/78
f 81/96/79 92/108/79 93/109/79 82/97/79
f 82/97/80 93/109/80 94/110/80 83/98/80
f 83/99/81 94/111/81 95/112/81 84/100/81
f 84/100/82 95/112/82 96/113/82 85/101/82
f 85/101/83 96/113/83 97/114/83 86/102/83
f 86/102/84 97/114/84 98/115/84 87/103/84
f 87/103/85 98/115/85 99/116/85 88/104/85
f 88/104/86 99/116/86 89/105/86 78/92/86
f 89/117/87 100/118/87 101/119/87 90/120/87
f 90/120/88 101/119/88 102/56/88 91/121/88
f 92/108/81 81/96/81 203/96/81 205/108/81
f 92/122/89 103/123/89 104/124/89 93/125/89
f 93/125/90 104/124/90 105/126/90 94/127/90
f 94/128/91 105/129/91 106/130/91 95/131/91
f 95/131/92 106/130/92 107/132/92 96/133/92
f 96/133/93 107/132/93 108/134/93 97/135/93
f 97/135/94 108/134/94 109/136/94 98/137/94
f 98/137/95 109/136/95 110/138/95 99/139/95
f 99/139/96 110/138/96 100/118/96 89/117/96
f 100/118/97 111/140/97 112/141/97 101/119/97
f 101/119/98 112/141/98 113/57/98 102/56/98
f 168/142/99 179/143/99 220/143/99 218/142/99
f 103/123/100 114/144/100 115/145/100 104/124/100
f 104/124/101 115/145/101 116/146/101 105/126/101
f 105/129/102 116/147/102 117/148/102 106/130/102
f 106/130/103 117/148/103 118/149/103 107/132/103
f 107/132/104 118/149/104 119/150/104 108/134/104
f 108/134/105 119/150/105 120/151/105 109/136/105
f 109/136/106 120/151/106 121/152/106 110/138/106
f 110/138/107 121/152/107 111/140/107 100/118/107
f 111/140/108 122/153/108 123/154/108 112/141/108
f 112/141/109 123/154/109 124/155/109 113/57/109
f 125/156/110 114/144/110 209/144/110 211/156/110
f 114/144/111 125/156/111 126/157/111 115/145/111
f 115/145/112 126/157/112 127/158/112 116/146/112
f 116/147/110 127/159/110 128/160/110 117/148/110
f 117/148/113 128/160/113 129/161/113 118/149/113
f 118/149/114 129/161/114 130/162/114 119/150/114
f 119/150/115 130/162/115 131/163/115 120/151/115
f 120/151/116 131/163/116 132/164/116 121/152/116
f 121/152/117 132/164/117 122/153/117 111/140/117
f 122/153/118 133/165/118 134/166/118 123/154/118
f 123/154/119 134/166/119 135/94/119 124/155/119
f 47/55/120 58/69/120 198/69/120 196/55/120
f 125/156/121 136/8/121 137/167/121 126/157/121
f 126/157/122 137/167/122 138/168/122 127/158/122
f 127/159/123 138/169/123 139/170/123 128/160/123
f 128/160/124 139/170/124 140/171/124 129/161/124
f 129/161/125 140/171/125 141/172/125 130/162/125
f 130/162/126 141/172/126 142/173/126 131/163/126
f 131/163/127 142/173/127 143/174/127 132/164/127
f 132/164/128 143/174/128 133/165/128 122/153/128
f 133/165/129 144/175/129 145/176/129 134/166/129
f 134/166/130 145/176/130 146/95/130 135/94/130
f 15/10/6 4/9/6 190/9/6 191/10/6
f 136/8/131 147/7/131 148/177/131 137/167/131
f 137/167/132 148/177/132 149/178/132 138/168/132
f 138/169/3 149/179/3 150/180/3 139/170/3
f 139/170/133 150/180/133 151/181/133 140/171/133
f 140/171/134 151/181/134 152/182/134 141/172/134
f 141/172/135 152/182/135 153/183/135 142/173/135
f 142/173/136 153/183/136 154/184/136 143/174/136
f 143/174/137 154/184/137 144/175/137 133/165/137
f 144/175/138 155/185/138 156/186/138 145/176/138
f 145/176/139 156/186/139 157/187/139 146/95/139
f 158/188/140 147/7/140 215/7/140 217/188/140
f 147/7/141 158/188/141 159/189/141 148/177/141
f 148/177/142 159/189/142 160/190/142 149/178/142
f 149/179/140 160/191/140 161/192/140 150/180/140
f 150/180/143 161/192/143 162/193/143 151/181/143
f 151/181/144 162/193/144 163/194/144 152/182/144
f 152/182/145 163/194/145 164/195/145 153/183/145
f 153/183/146 164/195/146 165/196/146 154/184/146
f 154/184/147 165/196/147 155/185/147 144/175/147
f 155/185/148 166/197/148 167/198/148 156/186/148
f 156/186/149 167/198/149 168/142/149 157/187/149
f 80/31/150 91/107/150 204/107/150 202/31/150
f 158/188/151 169/71/151 170/199/151 159/189/151
f 159/189/152 170/199/152 171/200/152 160/190/152
f 160/191/153 171/201/153 172/202/153 161/192/153
f 161/192/154 172/202/154 173/203/154 162/193/154
f 162/193/155 173/203/155 174/204/155 163/194/155
f 163/194/156 174/204/156 175/205/156 164/195/156
f 164/195/157 175/205/157 176/206/157 165/196/157
f 165/196/158 176/206/158 166/197/158 155/185/158
f 166/197/159 177/207/159 178/208/159 167/198/159
f 167/198/160 178/208/160 179/143/160 168/142/160
f 37/44/27 26/32/27 193/32/27 195/44/27
f 169/71/161 180/70/161 181/209/161 170/199/161
f 170/199/162 181/209/162 182/210/162 171/200/162
f 171/201/46 182/211/46 183/212/46 172/202/46
f 172/202/163 183/212/163 184/213/163 173/203/163
f 173/203/164 184/213/164 185/214/164 174/204/164
f 174/204/165 185/214/165 186/215/165 175/205/165
f 175/205/166 186/215/166 187/216/166 176/206/166
f 176/206/167 187/216/167 177/207/167 166/197/167
f 177/207/168 1/1/168 2/4/168 178/208/168
f 178/208/169 2/4/169 3/6/169 179/143/169
f 113/57/170 124/155/170 210/155/170 208/57/170
f 180/70/171 4/9/171 5/12/171 181/209/171
f 181/209/172 5/12/172 6/14/172 182/210/172
f 182/211/173 6/15/173 7/18/173 183/212/173
f 183/212/174 7/18/174 8/20/174 184/213/174
f 184/213/175 8/20/175 9/22/175 185/214/175
f 185/214/176 9/22/176 10/24/176 186/215/176
f 186/215/177 10/24/177 11/26/177 187/216/177
f 187/216/178 11/26/178 1/1/178 177/207/178
f 6/128/179 182/128/179 171/128/179 160/128/179 149/128/179 138/128/179 127/128/179 116/128/179 105/128/179 94/128/179 83/128/179 72/128/179 61/128/179 50/128/179 39/128/179 28/128/179 17/128/179
f 188/6/180 189/5/180 191/10/180 190/9/180
f 189/5/181 192/29/181 193/32/181 191/10/181
f 192/29/182 194/43/182 195/44/182 193/32/182
f 194/43/183 196/55/183 197/58/183 195/44/183
f 196/55/184 198/69/184 199/72/184 197/58/184
f 198/69/185 200/30/185 201/83/185 199/72/185
f 200/30/186 202/31/186 203/96/186 201/83/186
f 202/31/187 204/107/187 205/108/187 203/96/187
f 204/121/188 206/56/188 207/123/188 205/122/188
f 206/56/189 208/57/189 209/144/189 207/123/189
f 208/57/190 210/155/190 211/156/190 209/144/190
f 210/155/191 212/94/191 213/8/191 211/156/191
f 212/94/192 214/95/192 215/7/192 213/8/192
f 214/95/193 216/187/193 217/188/193 215/7/193
f 216/187/194 218/142/194 219/71/194 217/188/194
f 218/142/195 220/143/195 221/70/195 219/71/195
f 220/143/196 188/6/196 190/9/196 221/70/196
f 114/144/102 103/123/102 207/123/102 209/144/102
f 36/43/197 47/55/197 196/55/197 194/43/197
f 157/187/198 168/142/198 218/142/198 216/187/198
f 81/96/70 70/83/70 201/83/70 203/96/70
f 124/155/199 135/94/199 212/94/199 210/155/199
f 48/58/38 37/44/38 195/44/38 197/58/38
f 179/143/200 3/6/200 188/6/200 220/143/200
f 169/71/153 158/188/153 217/188/153 219/71/153
f 91/121/201 102/56/201 206/56/201 204/121/201
f 4/9/173 180/70/173 221/70/173 190/9/173
f 58/69/202 69/30/202 200/30/202 198/69/202
f 136/8/123 125/156/123 211/156/123 213/8/123
f 103/123/91 92/122/91 205/122/91 207/123/91
f 25/29/203 36/43/203 194/43/203 192/29/203
f 3/6/204 14/5/204 189/5/204 188/6/204
f 146/95/205 157/187/205 216/187/205 214/95/205
f 70/83/59 59/72/59 199/72/59 201/83/59
f 222/1/1 233/2/1 234/3/1 223/4/1
f 223/4/2 234/3/2 235/5/2 224/6/2
f 224/6/180 235/5/180 236/10/180 225/9/180
f 225/9/4 236/10/4 237/11/4 226/12/4
f 226/12/5 237/11/5 238/13/5 227/14/5
f 227/15/6 238/16/6 239/17/6 228/18/6
f 228/18/7 239/17/7 240/19/7 229/20/7
f 229/20/8 240/19/8 241/21/8 230/22/8
f 230/22/9 241/21/9 242/23/9 231/24/9
f 231/24/10 242/23/10 243/25/10 232/26/10
f 232/26/11 243/25/11 233/2/11 222/1/11
f 233/2/12 244/27/12 245/28/12 234/3/12
f 234/3/13 245/28/13 246/29/13 235/5/13
f 235/5/181 246/29/181 247/32/181 236/10/181
f 236/10/15 247/32/15 248/33/15 237/11/15
f 237/11/16 248/33/16 249/34/16 238/13/16
f 238/16/17 249/35/17 250/36/17 239/17/17
f 239/17/18 250/36/18 251/37/18 240/19/18
f 240/19/19 251/37/19 252/38/19 241/21/19
f 241/21/20 252/38/20 253/39/20 242/23/20
f 242/23/21 253/39/21 254/40/21 243/25/21
f 243/25/22 254/40/22 244/27/22 233/2/22
f 244/27/23 255/41/23 256/42/23 245/28/23
f 245/28/24 256/42/24 257/43/24 246/29/24
f 246/29/182 257/43/182 258/44/182 247/32/182
f 247/32/25 258/44/25 259/45/25 248/33/25
f 248/33/26 259/45/26 260/46/26 249/34/26
f 249/35/27 260/47/27 261/48/27 250/36/27
f 250/36/28 261/48/28 262/49/28 251/37/28
f 251/37/29 262/49/29 263/50/29 252/38/29
f 252/38/30 263/50/30 264/51/30 253/39/30
f 253/39/31 264/51/31 265/52/31 254/40/31
f 254/40/32 265/52/32 255/41/32 244/27/32
f 255/41/33 266/53/33 267/54/33 256/42/33
f 256/42/34 267/54/34 268/55/34 257/43/34
f 257/43/183 268/55/183 269/58/183 258/44/183
f 258/44/36 269/58/36 270/59/36 259/45/36
f 259/45/37 270/59/37 271/60/37 260/46/37
f 260/47/38 271/61/38 272/62/38 261/48/38
f 261/48/39 272/62/39 273/63/39 262/49/39
f 262/49/40 273/63/40 274/64/40 263/50/40
f 263/50/41 274/64/41 275/65/41 264/51/41
f 264/51/42 275/65/42 276/66/42 265/52/42
f 265/52/43 276/66/43 266/53/43 255/41/43
f 266/53/44 277/67/44 278/68/44 267/54/44
f 267/54/206 278/68/206 279/69/206 268/55/206
f 268/55/184 279/69/184 280/72/184 269/58/184
f 269/58/47 280/72/47 281/73/47 270/59/47
f 270/59/48 281/73/48 282/74/48 271/60/48
f 271/61/49 282/75/49 283/76/49 272/62/49
f 272/62/50 283/76/50 284/77/50 273/63/50
f 273/63/51 284/77/51 285/78/51 274/64/51
f 274/64/52 285/78/52 286/79/52 275/65/52
f 275/65/207 286/79/207 287/80/207 276/66/207
f 276/66/54 287/80/54 277/67/54 266/53/54
f 277/67/55 288/81/55 289/82/55 278/68/55
f 278/68/56 289/82/56 290/30/56 279/69/56
f 279/69/185 290/30/185 291/83/185 280/72/185
f 280/72/57 291/83/57 292/84/57 281/73/57
f 281/73/58 292/84/58 293/85/58 282/74/58
f 282/75/59 293/86/59 294/87/59 283/76/59
f 283/76/60 294/87/60 295/88/60 284/77/60
f 284/77/61 295/88/61 296/89/61 285/78/61
f 285/78/62 296/89/62 297/90/62 286/79/62
f 286/79/63 297/90/63 298/91/63 287/80/63
f 287/80/64 298/91/64 288/81/64 277/67/64
f 288/81/65 299/92/65 300/93/65 289/82/65
f 289/82/66 300/93/66 301/31/66 290/30/66
f 290/30/186 301/31/186 302/96/186 291/83/186
f 291/83/68 302/96/68 303/97/68 292/84/68
f 292/84/69 303/97/69 304/98/69 293/85/69
f 293/86/70 304/99/70 305/100/70 294/87/70
f 294/87/71 305/100/71 306/101/71 295/88/71
f 295/88/72 306/101/72 307/102/72 296/89/72
f 296/89/73 307/102/73 308/103/73 297/90/73
f 297/90/74 308/103/74 309/104/74 298/91/74
f 298/91/75 309/104/75 299/92/75 288/81/75
f 299/92/76 310/105/76 311/106/76 300/93/76
f 300/93/77 311/106/77 312/107/77 301/31/77
f 301/31/187 312/107/187 313/108/187 302/96/187
f 302/96/79 313/108/79 314/109/79 303/97/79
f 303/97/80 314/109/80 315/110/80 304/98/80
f 304/99/81 315/111/81 316/112/81 305/100/81
f 305/100/82 316/112/82 317/113/82 306/101/82
f 306/101/83 317/113/83 318/114/83 307/102/83
f 307/102/84 318/114/84 319/115/84 308/103/84
f 308/103/208 319/115/208 320/116/208 309/104/208
f 309/104/86 320/116/86 310/105/86 299/92/86
f 310/117/87 321/118/87 322/119/87 311/120/87
f 311/120/209 322/119/209 323/56/209 312/121/209
f 312/121/188 323/56/188 324/123/188 313/122/188
f 313/122/89 324/123/89 325/124/89 314/125/89
f 314/125/90 325/124/90 326/126/90 315/127/90
f 315/128/91 326/129/91 327/130/91 316/131/91
f 316/131/92 327/130/92 328/132/92 317/133/92
f 317/133/93 328/132/93 329/134/93 318/135/93
f 318/135/94 329/134/94 330/136/94 319/137/94
f 319/137/95 330/136/95 331/138/95 320/139/95
f 320/139/96 331/138/96 321/118/96 310/117/96
f 321/118/97 332/140/97 333/141/97 322/119/97
f 322/119/98 333/141/98 334/57/98 323/56/98
f 323/56/189 334/57/189 335/144/189 324/123/189
f 324/123/100 335/144/100 336/145/100 325/124/100
f 325/124/101 336/145/101 337/146/101 326/126/101
f 326/129/102 337/147/102 338/148/102 327/130/102
f 327/130/103 338/148/103 339/149/103 328/132/103
f 328/132/104 339/149/104 340/150/104 329/134/104
f 329/134/105 340/150/105 341/151/105 330/136/105
f 330/136/106 341/151/106 342/152/106 331/138/106
f 331/138/107 342/152/107 332/140/107 321/118/107
f 332/140/108 343/153/108 344/154/108 333/141/108
f 333/141/109 344/154/109 345/155/109 334/57/109
f 334/57/190 345/155/190 346/156/190 335/144/190
f 335/144/111 346/156/111 347/157/111 336/145/111
f 336/145/112 347/157/112 348/158/112 337/146/112
f 337/147/110 348/159/110 349/160/110 338/148/110
f 338/148/113 349/160/113 350/161/113 339/149/113
f 339/149/114 350/161/114 351/162/114 340/150/114
f 340/150/115 351/162/115 352/163/115 341/151/115
f 341/151/210 352/163/210 353/164/210 342/152/210
f 342/152/117 353/164/117 343/153/117 332/140/117
f 343/153/118 354/165/118 355/166/118 344/154/118
f 344/154/119 355/166/119 356/94/119 345/155/119
f 345/155/191 356/94/191 357/8/191 346/156/191
f 346/156/121 357/8/121 358/167/121 347/157/121
f 347/157/122 358/167/122 359/168/122 348/158/122
f 348/159/123 359/169/123 360/170/123 349/160/123
f 349/160/124 360/170/124 361/171/124 350/161/124
f 350/161/125 361/171/125 362/172/125 351/162/125
f 351/162/126 362/172/126 363/173/126 352/163/126
f 352/163/127 363/173/127 364/174/127 353/164/127
f 353/164/128 364/174/128 354/165/128 343/153/128
f 354/165/211 365/175/211 366/176/211 355/166/211
f 355/166/130 366/176/130 367/95/130 356/94/130
f 356/94/192 367/95/192 368/7/192 357/8/192
f 357/8/131 368/7/131 369/177/131 358/167/131
f 358/167/132 369/177/132 370/178/132 359/168/132
f 359/169/3 370/179/3 371/180/3 360/170/3
f 360/170/133 371/180/133 372/181/133 361/171/133
f 361/171/134 372/181/134 373/182/134 362/172/134
f 362/172/135 373/182/135 374/183/135 363/173/135
f 363/173/136 374/183/136 375/184/136 364/174/136
f 364/174/212 375/184/212 365/175/212 354/165/212
f 365/175/138 376/185/138 377/186/138 366/176/138
f 366/176/139 377/186/139 378/187/139 367/95/139
f 367/95/193 378/187/193 379/188/193 368/7/193
f 368/7/141 379/188/141 380/189/141 369/177/141
f 369/177/142 380/189/142 381/190/142 370/178/142
f 370/179/140 381/191/140 382/192/140 371/180/140
f 371/180/143 382/192/143 383/193/143 372/181/143
f 372/181/144 383/193/144 384/194/144 373/182/144
f 373/182/145 384/194/145 385/195/145 374/183/145
f 374/183/146 385/195/146 386/196/146 375/184/146
f 375/184/147 386/196/147 376/185/147 365/175/147
f 376/185/148 387/197/148 388/198/148 377/186/148
f 377/186/149 388/198/149 389/142/149 378/187/149
f 378/187/194 389/142/194 390/71/194 379/188/194
f 379/188/151 390/71/151 391/199/151 380/189/151
f 380/189/152 391/199/152 392/200/152 381/190/152
f 381/191/153 392/201/153 393/202/153 382/192/153
f 382/192/154 393/202/154 394/203/154 383/193/154
f 383/193/155 394/203/155 395/204/155 384/194/155
f 384/194/156 395/204/156 396/205/156 385/195/156
f 385/195/157 396/205/157 397/206/157 386/196/157
f 386/196/158 397/206/158 387/197/158 376/185/158
f 387/197/159 398/207/159 399/208/159 388/198/159
f 388/198/213 399/208/213 400/143/213 389/142/213
f 389/142/195 400/143/195 401/70/195 390/71/195
f 390/71/161 401/70/161 402/209/161 391/199/161
f 391/199/162 402/209/162 403/210/162 392/200/162
f 392/201/46 403/211/46 404/212/46 393/202/46
f 393/202/163 404/212/163 405/213/163 394/203/163
f 394/203/164 405/213/164 406/214/164 395/204/164
f 395/204/165 406/214/165 407/215/165 396/205/165
f 396/205/166 407/215/166 408/216/166 397/206/166
f 397/206/167 408/216/167 398/207/167 387/197/167
f 398/207/168 222/1/168 223/4/168 399/208/168
f 399/208/169 223/4/169 224/6/169 400/143/169
f 400/143/196 224/6/196 225/9/196 401/70/196
f 401/70/171 225/9/171 226/12/171 402/209/171
f 402/209/172 226/12/172 227/14/172 403/210/172
f 403/211/173 227/15/173 228/18/173 404/212/173
f 404/212/174 228/18/174 229/20/174 405/213/174
f 405/213/175 229/20/175 230/22/175 406/214/175
f 406/214/176 230/22/176 231/24/176 407/215/176
f 407/215/177 231/24/177 232/26/177 408/216/177
f 408/216/178 232/26/178 222/1/178 398/207/178
f 227/128/179 403/128/179 392/128/179 381/128/179 370/128/179 359/128/179 348/128/179 337/128/179 326/128/179 315/128/179 304/128/179 293/128/179 282/128/179 271/128/179 260/128/179 249/128/179 238/128/179
