# Blender 4.4.3
# www.blender.org
o Torus.026
v -16.232571 11.955566 9.570572
v -16.246859 12.004224 9.570572
v -16.285183 12.037434 9.570572
v -16.335379 12.044650 9.570572
v -16.381508 12.023584 9.570572
v -16.408926 11.980923 9.570572
v -16.408926 11.930210 9.570572
v -16.381508 11.887548 9.570572
v -16.335379 11.866483 9.570572
v -16.285183 11.873699 9.570572
v -16.246859 11.906909 9.570572
v -16.368301 11.955566 8.844477
v -16.381624 12.004224 8.849637
v -16.417362 12.037434 8.863482
v -16.464169 12.044650 8.881615
v -16.507181 12.023584 8.898278
v -16.532747 11.980923 8.908183
v -16.532747 11.930210 8.908183
v -16.507181 11.887548 8.898278
v -16.464169 11.866483 8.881615
v -16.417362 11.873699 8.863482
v -16.381624 11.906909 8.849637
v -16.757164 11.955566 8.216444
v -16.767721 12.004224 8.226068
v -16.796043 12.037434 8.251888
v -16.833139 12.044650 8.285706
v -16.867229 12.023584 8.316782
v -16.887491 11.980923 8.335253
v -16.887491 11.930210 8.335253
v -16.867229 11.887548 8.316782
v -16.833139 11.866483 8.285706
v -16.796043 11.873699 8.251888
v -16.767721 11.906909 8.226068
v -17.346636 11.955566 7.771294
v -17.353004 12.004224 7.784083
v -17.370089 12.037434 7.818391
v -17.392462 12.044650 7.863324
v -17.413023 12.023584 7.904617
v -17.425245 11.980923 7.929160
v -17.425245 11.930210 7.929160
v -17.413023 11.887548 7.904617
v -17.392462 11.866483 7.863324
v -17.370089 11.873699 7.818391
v -17.353004 11.906909 7.784083
v -18.057112 11.955566 7.569146
v -18.058430 12.004224 7.583373
v -18.061966 12.037434 7.621534
v -18.066597 12.044650 7.671516
v -18.070854 12.023584 7.717448
v -18.073383 11.980923 7.744748
v -18.073383 11.930210 7.744748
v -18.070854 11.887548 7.717448
v -18.066597 11.866483 7.671516
v -18.061966 11.873699 7.621534
v -18.058430 11.906909 7.583373
v -18.792633 11.955566 7.637302
v -18.788723 12.004224 7.651044
v -18.778234 12.037434 7.687907
v -18.764498 12.044650 7.736186
v -18.751875 12.023584 7.780554
v -18.744371 11.980923 7.806925
v -18.744371 11.930210 7.806925
v -18.751875 11.887548 7.780554
v -18.764498 11.866483 7.736186
v -18.778234 11.873699 7.687907
v -18.788723 11.906909 7.651044
v -19.453867 11.955566 7.966558
v -19.445257 12.004224 7.977959
v -19.422161 12.037434 8.008543
v -19.391911 12.044650 8.048600
v -19.364111 12.023584 8.085412
v -19.347589 11.980923 8.107291
v -19.347589 11.930210 8.107291
v -19.364111 11.887548 8.085412
v -19.391911 11.866483 8.048600
v -19.422161 11.873699 8.008543
v -19.445257 11.906909 7.977959
v -19.951508 11.955566 8.512444
v -19.939360 12.004224 8.519964
v -19.906775 12.037434 8.540140
v -19.864098 12.044650 8.566565
v -19.824879 12.023584 8.590849
v -19.801567 11.980923 8.605282
v -19.801567 11.930210 8.605282
v -19.824879 11.887548 8.590849
v -19.864098 11.866483 8.566565
v -19.906775 11.873699 8.540140
v -19.939360 11.906909 8.519964
v -20.218346 11.955566 9.201236
v -20.204302 12.004224 9.203860
v -20.166630 12.037434 9.210903
v -20.117289 12.044650 9.220126
v -20.071945 12.023584 9.228602
v -20.044994 11.980923 9.233641
v -20.044994 11.930210 9.233641
v -20.071945 11.887548 9.228602
v -20.117289 11.866483 9.220126
v -20.166630 11.873699 9.210903
v -20.204302 11.906909 9.203860
v -20.218346 11.955566 9.939908
v -20.204302 12.004224 9.937284
v -20.166630 12.037434 9.930241
v -20.117289 12.044650 9.921018
v -20.071945 12.023584 9.912541
v -20.044994 11.980923 9.907503
v -20.044994 11.930210 9.907503
v -20.071945 11.887548 9.912541
v -20.117289 11.866483 9.921018
v -20.166630 11.873699 9.930241
v -20.204302 11.906909 9.937284
v -19.951508 11.955566 10.628700
v -19.939360 12.004224 10.621179
v -19.906775 12.037434 10.601003
v -19.864098 12.044650 10.574578
v -19.824879 12.023584 10.550295
v -19.801567 11.980923 10.535861
v -19.801567 11.930210 10.535861
v -19.824879 11.887548 10.550295
v -19.864098 11.866483 10.574578
v -19.906775 11.873699 10.601003
v -19.939360 11.906909 10.621179
v -19.453867 11.955566 11.174585
v -19.445257 12.004224 11.163184
v -19.422161 12.037434 11.132600
v -19.391911 12.044650 11.092543
v -19.364113 12.023584 11.055731
v -19.347589 11.980923 11.033852
v -19.347589 11.930210 11.033852
v -19.364113 11.887548 11.055731
v -19.391911 11.866483 11.092543
v -19.422161 11.873699 11.132600
v -19.445257 11.906909 11.163184
v -18.792633 11.955566 11.503841
v -18.788725 12.004224 11.490099
v -18.778236 12.037434 11.453237
v -18.764500 12.044650 11.404958
v -18.751875 12.023584 11.360589
v -18.744371 11.980923 11.334219
v -18.744371 11.930210 11.334219
v -18.751875 11.887548 11.360589
v -18.764500 11.866483 11.404958
v -18.778236 11.873699 11.453237
v -18.788725 11.906909 11.490099
v -18.057112 11.955566 11.571998
v -18.058430 12.004224 11.557772
v -18.061966 12.037434 11.519609
v -18.066597 12.044650 11.469627
v -18.070854 12.023584 11.423696
v -18.073383 11.980923 11.396396
v -18.073383 11.930210 11.396396
v -18.070854 11.887548 11.423696
v -18.066597 11.866483 11.469627
v -18.061966 11.873699 11.519609
v -18.058430 11.906909 11.557772
v -17.346636 11.955566 11.369850
v -17.353004 12.004224 11.357060
v -17.370089 12.037434 11.322753
v -17.392462 12.044650 11.277820
v -17.413023 12.023584 11.236526
v -17.425245 11.980923 11.211984
v -17.425245 11.930210 11.211984
v -17.413023 11.887548 11.236526
v -17.392462 11.866483 11.277820
v -17.370089 11.873699 11.322753
v -17.353004 11.906909 11.357060
v -16.757164 11.955566 10.924701
v -16.767723 12.004224 10.915075
v -16.796045 12.037434 10.889256
v -16.833139 12.044650 10.855439
v -16.867229 12.023584 10.824363
v -16.887491 11.980923 10.805892
v -16.887491 11.930210 10.805892
v -16.867229 11.887548 10.824363
v -16.833139 11.866483 10.855439
v -16.796045 11.873699 10.889256
v -16.767723 11.906909 10.915075
v -16.368301 11.955566 10.296668
v -16.381624 12.004224 10.291508
v -16.417362 12.037434 10.277662
v -16.464169 12.044650 10.259530
v -16.507183 12.023584 10.242866
v -16.532747 11.980923 10.232962
v -16.532747 11.930210 10.232962
v -16.507183 11.887548 10.242866
v -16.464169 11.866483 10.259530
v -16.417362 11.873699 10.277662
v -16.381624 11.906909 10.291508
v -16.285183 13.118048 9.570572
v -16.417362 13.118048 8.863482
v -16.335379 13.125265 9.570572
v -16.464169 13.125265 8.881615
v -16.796043 13.118048 8.251888
v -16.833139 13.125265 8.285706
v -17.370089 13.118048 7.818391
v -17.392462 13.125265 7.863324
v -18.061966 13.118048 7.621534
v -18.066597 13.125265 7.671516
v -18.778234 13.118048 7.687907
v -18.764498 13.125265 7.736186
v -19.422161 13.118048 8.008543
v -19.391911 13.125265 8.048600
v -19.906775 13.118048 8.540140
v -19.864098 13.125265 8.566565
v -20.166630 13.118048 9.210903
v -20.117289 13.125265 9.220126
v -20.166630 13.118048 9.930241
v -20.117289 13.125265 9.921018
v -19.906775 13.118048 10.601003
v -19.864098 13.125265 10.574578
v -19.422161 13.118048 11.132600
v -19.391911 13.125265 11.092543
v -18.778236 13.118048 11.453237
v -18.764500 13.125265 11.404958
v -18.061966 13.118048 11.519609
v -18.066597 13.125265 11.469627
v -17.370089 13.118048 11.322753
v -17.392462 13.125265 11.277820
v -16.796045 13.118048 10.889256
v -16.833139 13.125265 10.855439
v -16.417362 13.118048 10.277662
v -16.464169 13.125265 10.259530
s 0
f 1 12 13 2
f 2 13 14 3
f 147 136 213 215
f 4 15 16 5
f 5 16 17 6
f 6 17 18 7
f 7 18 19 8
f 8 19 20 9
f 9 20 21 10
f 10 21 22 11
f 11 22 12 1
f 12 23 24 13
f 13 24 25 14
f 69 80 202 200
f 15 26 27 16
f 16 27 28 17
f 17 28 29 18
f 18 29 30 19
f 19 30 31 20
f 20 31 32 21
f 21 32 33 22
f 22 33 23 12
f 23 34 35 24
f 24 35 36 25
f 26 15 191 193
f 26 37 38 27
f 27 38 39 28
f 28 39 40 29
f 29 40 41 30
f 30 41 42 31
f 31 42 43 32
f 32 43 44 33
f 33 44 34 23
f 34 45 46 35
f 35 46 47 36
f 102 113 208 206
f 37 48 49 38
f 38 49 50 39
f 39 50 51 40
f 40 51 52 41
f 41 52 53 42
f 42 53 54 43
f 43 54 55 44
f 44 55 45 34
f 45 56 57 46
f 46 57 58 47
f 180 169 219 221
f 48 59 60 49
f 49 60 61 50
f 50 61 62 51
f 51 62 63 52
f 52 63 64 53
f 53 64 65 54
f 54 65 66 55
f 55 66 56 45
f 56 67 68 57
f 57 68 69 58
f 59 48 197 199
f 59 70 71 60
f 60 71 72 61
f 61 72 73 62
f 62 73 74 63
f 63 74 75 64
f 64 75 76 65
f 65 76 77 66
f 66 77 67 56
f 67 78 79 68
f 68 79 80 69
f 135 146 214 212
f 70 81 82 71
f 71 82 83 72
f 72 83 84 73
f 73 84 85 74
f 74 85 86 75
f 75 86 87 76
f 76 87 88 77
f 77 88 78 67
f 78 89 90 79
f 79 90 91 80
f 14 25 192 189
f 81 92 93 82
f 82 93 94 83
f 83 94 95 84
f 84 95 96 85
f 85 96 97 86
f 86 97 98 87
f 87 98 99 88
f 88 99 89 78
f 89 100 101 90
f 90 101 102 91
f 92 81 203 205
f 92 103 104 93
f 93 104 105 94
f 94 105 106 95
f 95 106 107 96
f 96 107 108 97
f 97 108 109 98
f 98 109 110 99
f 99 110 100 89
f 100 111 112 101
f 101 112 113 102
f 168 179 220 218
f 103 114 115 104
f 104 115 116 105
f 105 116 117 106
f 106 117 118 107
f 107 118 119 108
f 108 119 120 109
f 109 120 121 110
f 110 121 111 100
f 111 122 123 112
f 112 123 124 113
f 125 114 209 211
f 114 125 126 115
f 115 126 127 116
f 116 127 128 117
f 117 128 129 118
f 118 129 130 119
f 119 130 131 120
f 120 131 132 121
f 121 132 122 111
f 122 133 134 123
f 123 134 135 124
f 47 58 198 196
f 125 136 137 126
f 126 137 138 127
f 127 138 139 128
f 128 139 140 129
f 129 140 141 130
f 130 141 142 131
f 131 142 143 132
f 132 143 133 122
f 133 144 145 134
f 134 145 146 135
f 15 4 190 191
f 136 147 148 137
f 137 148 149 138
f 138 149 150 139
f 139 150 151 140
f 140 151 152 141
f 141 152 153 142
f 142 153 154 143
f 143 154 144 133
f 144 155 156 145
f 145 156 157 146
f 158 147 215 217
f 147 158 159 148
f 148 159 160 149
f 149 160 161 150
f 150 161 162 151
f 151 162 163 152
f 152 163 164 153
f 153 164 165 154
f 154 165 155 144
f 155 166 167 156
f 156 167 168 157
f 80 91 204 202
f 158 169 170 159
f 159 170 171 160
f 160 171 172 161
f 161 172 173 162
f 162 173 174 163
f 163 174 175 164
f 164 175 176 165
f 165 176 166 155
f 166 177 178 167
f 167 178 179 168
f 37 26 193 195
f 169 180 181 170
f 170 181 182 171
f 171 182 183 172
f 172 183 184 173
f 173 184 185 174
f 174 185 186 175
f 175 186 187 176
f 176 187 177 166
f 177 1 2 178
f 178 2 3 179
f 113 124 210 208
f 180 4 5 181
f 181 5 6 182
f 182 6 7 183
f 183 7 8 184
f 184 8 9 185
f 185 9 10 186
f 186 10 11 187
f 187 11 1 177
f 6 182 171 160 149 138 127 116 105 94 83 72 61 50 39 28 17
f 188 189 191 190
f 189 192 193 191
f 192 194 195 193
f 194 196 197 195
f 196 198 199 197
f 198 200 201 199
f 200 202 203 201
f 202 204 205 203
f 204 206 207 205
f 206 208 209 207
f 208 210 211 209
f 210 212 213 211
f 212 214 215 213
f 214 216 217 215
f 216 218 219 217
f 218 220 221 219
f 220 188 190 221
f 114 103 207 209
f 36 47 196 194
f 157 168 218 216
f 81 70 201 203
f 124 135 212 210
f 48 37 195 197
f 179 3 188 220
f 169 158 217 219
f 91 102 206 204
f 4 180 221 190
f 58 69 200 198
f 136 125 211 213
f 103 92 205 207
f 25 36 194 192
f 3 14 189 188
f 146 157 216 214
f 70 59 199 201
